# xmcd
#
# Track frame offsets:
#	150
#	16583
#	34856
#	49793
#	63631
#	76715
#	94193
#	106901
#	121745
#	135156
#	150198
#	164791
#	180118
#
# Disc length: 2609 seconds
#
# Revision: 2
# Processed by: cddbd v1.5.2PL0 Copyright (c) Steve Scherf et al.
# Submitted via: EasyCDDAExtractor 10.2.0.1
#
DISCID=8b0a2f0d
DTITLE=Various Artist - Festa de Peão
DYEAR=2004
DGENRE=Country
TTITLE0=Rionegro and Solimões - Casa Cheia
TTITLE1=Chitãozinho and Xororó - Peão de Rodeio
TTITLE2=Adalberto and Adriano - Vem Comigo
TTITLE3=Rionegro and Solimões - Peão Apaixonado
TTITLE4=João Mineiro and Marciano - Eu Tenho Sorte
TTITLE5=Roberta Miranda - Cowboy Dos Sonhos
TTITLE6=Chitãozinho and Xororó - Na Aba Do Meu Chapéu
TTITLE7=Adalberto and Adriano - Deixa a Chuva Derramar
TTITLE8=Maurício and Maurí - Xonado Eu tô
TTITLE9=Rionegro and solimões - Só Alegria
TTITLE10=Paula Hunter - Eu Quero Ser Feliz
TTITLE11=Dany and Daniel - Cavalo Baio
TTITLE12=Chitãozinho and Xororó - Bailão De Peão
EXTD=
EXTT0=
EXTT1=
EXTT2=
EXTT3=
EXTT4=
EXTT5=
EXTT6=
EXTT7=
EXTT8=
EXTT9=
EXTT10=
EXTT11=
EXTT12=
PLAYORDER=
